<svg width="280" height="280" viewBox="0 0 280 280" fill="none" xmlns="http://www.w3.org/2000/svg">
<g clip-path="url(#clip0_6908_49883)">
<path fill-rule="evenodd" clip-rule="evenodd" d="M123.521 39.8085C113.175 29.1379 105.699 23.4946 96.8353 22.3096C94.9657 22.0596 93.079 21.9608 91.1935 22.014C78.2946 22.3781 67.2979 32.2765 45.3046 52.0733C16.8444 77.6913 2.61423 90.5002 0.400708 107.046C0.0771471 109.465 -0.0508071 111.906 0.0180935 114.345C0.143532 118.786 1.14309 123.052 3.02563 127.459C4.40191 129.91 5.88368 131.465 7.36006 132.267C9.48288 133.42 17.0871 135.527 35.675 118.767C45.4115 109.988 68.4565 89.2829 93.4265 66.8486L93.4366 66.8395C103.399 57.8884 113.668 48.6622 123.521 39.8085ZM17.5365 149.949C19.3766 152.331 20.8993 154.207 21.5104 154.8L21.7321 154.606L21.5076 154.808L69.1234 208.104C98.4391 240.918 113.097 257.324 132.412 258.441C151.726 259.557 168.177 244.948 201.08 215.73L241.727 179.634C266.691 157.466 279.172 146.382 279.961 131.771C280.75 117.16 269.534 104.797 247.103 80.0721L247.102 80.0719L230.147 61.3831C208.021 36.9953 196.959 24.8015 182.492 24.0589C171.887 23.5146 162.471 29.2795 148.544 41.061C134.921 53.3068 119.7 66.982 105.142 80.062L105.135 80.0682C80.1818 102.488 57.1759 123.157 47.5003 131.882C36.4846 141.814 26.4903 147.865 17.5365 149.949Z" fill="black"/>
</g>
<defs>
<clipPath id="clip0_6908_49883">
<rect width="280" height="280" fill="white"/>
</clipPath>
</defs>
</svg>
