<svg width="24" height="15" viewBox="0 0 24 15" fill="none" xmlns="http://www.w3.org/2000/svg">
<path d="M22.8295 2.49531C22.7072 2.42883 22.5695 2.39724 22.4309 2.40392C22.2924 2.4106 22.1582 2.45529 22.0427 2.53322L18.6349 4.8335V2.39808C18.6349 1.98553 18.4733 1.58986 18.1858 1.29814C17.8982 1.00642 17.5082 0.842529 17.1015 0.842529H1.7682C1.36153 0.842529 0.971522 1.00642 0.683966 1.29814C0.39641 1.58986 0.234863 1.98553 0.234863 2.39808V13.287C0.234863 13.6995 0.39641 14.0952 0.683966 14.3869C0.971522 14.6786 1.36153 14.8425 1.7682 14.8425H17.1015C17.5082 14.8425 17.8982 14.6786 18.1858 14.3869C18.4733 14.0952 18.6349 13.6995 18.6349 13.287V10.8564L22.0427 13.1616C22.1693 13.2449 22.3173 13.2886 22.4682 13.287C22.6715 13.287 22.8665 13.205 23.0103 13.0592C23.1541 12.9133 23.2349 12.7155 23.2349 12.5092V3.17586C23.2339 3.03592 23.1957 2.89883 23.1244 2.77906C23.053 2.65928 22.9512 2.56125 22.8295 2.49531ZM17.1015 13.287H9.43486H1.7682V2.39808H17.1015V13.287ZM21.7015 11.0557L18.6349 8.98197V6.70308L21.7015 4.6342V11.0557Z" fill="white"/>
</svg>
