<svg width="24" height="16" viewBox="0 0 24 16" fill="none" xmlns="http://www.w3.org/2000/svg">
<path d="M21.7121 4.44908C16.4481 -0.813106 7.55308 -0.813106 2.28902 4.44908C0.414017 6.32408 0.234017 9.08877 1.84933 11.1719C1.98973 11.3519 2.16938 11.4975 2.37457 11.5976C2.57976 11.6977 2.80509 11.7496 3.03339 11.7494C3.21782 11.7495 3.40064 11.7152 3.57246 11.6481L8.16621 10.0197L8.19339 10.0094C8.42525 9.91666 8.63028 9.76752 8.7899 9.57548C8.94952 9.38345 9.05867 9.15461 9.10746 8.90971L9.66058 6.14221C11.1687 5.62086 12.8076 5.61724 14.3181 6.1319L14.9003 8.92096C14.9508 9.16318 15.0604 9.38914 15.2194 9.57872C15.3784 9.76831 15.5818 9.91561 15.8115 10.0075L15.8387 10.0178L20.4325 11.6481C20.7326 11.7644 21.0621 11.781 21.3724 11.6956C21.6827 11.6102 21.9573 11.4272 22.1556 11.1738C23.7671 9.08877 23.5862 6.32408 21.7121 4.44908ZM20.9696 10.2494L20.9415 10.2381L16.3646 8.61346L15.7825 5.82533C15.7296 5.57304 15.6127 5.33863 15.4429 5.1447C15.2731 4.95076 15.0562 4.80386 14.8131 4.71815C12.979 4.09022 10.9875 4.09451 9.15621 4.73033C8.91123 4.81786 8.69323 4.96759 8.52361 5.16482C8.35399 5.36206 8.23858 5.60002 8.18871 5.85533L7.63558 8.6219L3.05964 10.2363C3.05027 10.2363 3.04371 10.2485 3.03433 10.2522C1.87839 8.76065 2.00308 6.85565 3.34933 5.51033C5.69308 3.16658 8.84777 1.99189 12.0006 1.99189C15.1534 1.99189 18.3071 3.16471 20.6518 5.51033C21.9953 6.85565 22.1256 8.76065 20.9696 10.2494ZM20.9996 14.7494C20.9996 14.9483 20.9206 15.1391 20.78 15.2797C20.6393 15.4204 20.4486 15.4994 20.2496 15.4994H3.75058C3.55167 15.4994 3.3609 15.4204 3.22025 15.2797C3.0796 15.1391 3.00058 14.9483 3.00058 14.7494C3.00058 14.5505 3.0796 14.3597 3.22025 14.2191C3.3609 14.0784 3.55167 13.9994 3.75058 13.9994H20.2506C20.4495 13.9994 20.6403 14.0784 20.7809 14.2191C20.9216 14.3597 21.0006 14.5505 21.0006 14.7494H20.9996Z" fill="white"/>
</svg>
