<svg width="24" height="14" viewBox="0 0 24 14" fill="none" xmlns="http://www.w3.org/2000/svg">
<path d="M23.577 1.90708C23.4494 1.84377 23.3057 1.81369 23.1611 1.82005C23.0165 1.82641 22.8765 1.86897 22.756 1.94319L19.2 4.13393V1.81449C19.2 1.42158 19.0314 1.04476 18.7314 0.766924C18.4313 0.489092 18.0243 0.333008 17.6 0.333008H1.6C1.17565 0.333008 0.768687 0.489092 0.468629 0.766924C0.168571 1.04476 0 1.42158 0 1.81449V12.1849C0 12.5778 0.168571 12.9546 0.468629 13.2324C0.768687 13.5103 1.17565 13.6663 1.6 13.6663H17.6C18.0243 13.6663 18.4313 13.5103 18.7314 13.2324C19.0314 12.9546 19.2 12.5778 19.2 12.1849V9.87004L22.756 12.0654C22.8881 12.1448 23.0425 12.1864 23.2 12.1849C23.4122 12.1849 23.6157 12.1068 23.7657 11.9679C23.9157 11.829 24 11.6406 24 11.4441V2.55523C23.999 2.42195 23.9592 2.29139 23.8847 2.17732C23.8103 2.06325 23.704 1.96989 23.577 1.90708ZM17.6 12.1849H9.6H1.6V1.81449H17.6V12.1849ZM22.4 10.0599L19.2 8.08486V5.91449L22.4 3.94412V10.0599Z" fill="#404650"/>
</svg>
