<svg width="25" height="19" viewBox="0 0 25 19" fill="none" xmlns="http://www.w3.org/2000/svg">
<path d="M24.077 4.15705C23.9494 4.09062 23.8057 4.05906 23.6611 4.06573C23.5165 4.07241 23.3765 4.11706 23.256 4.19494L19.7 6.49352V4.0599C19.7 3.64765 19.5314 3.25228 19.2314 2.96077C18.9313 2.66926 18.5243 2.5055 18.1 2.5055H10.206C9.99383 2.5055 9.79034 2.58738 9.64031 2.73314C9.49029 2.87889 9.406 3.07657 9.406 3.2827C9.406 3.48883 9.49029 3.68651 9.64031 3.83227C9.79034 3.97802 9.99383 4.0599 10.206 4.0599H18.1V12.5732C18.1 12.7793 18.1843 12.977 18.3343 13.1228C18.4843 13.2685 18.6878 13.3504 18.9 13.3504C19.1122 13.3504 19.3157 13.2685 19.4657 13.1228C19.6157 12.977 19.7 12.7793 19.7 12.5732V12.512L23.256 14.8154C23.3881 14.8987 23.5425 14.9423 23.7 14.9407C23.9122 14.9407 24.1157 14.8589 24.2657 14.7131C24.4157 14.5674 24.5 14.3697 24.5 14.1635V4.83711C24.499 4.69727 24.4592 4.56028 24.3847 4.4406C24.3103 4.32091 24.204 4.22295 24.077 4.15705ZM22.9 12.7111L19.7 10.6389V8.36172L22.9 6.29436V12.7111ZM4.292 0.428422C4.22175 0.351485 4.13647 0.288861 4.04112 0.244177C3.94577 0.199493 3.84224 0.17364 3.73653 0.168114C3.63081 0.162589 3.52502 0.177503 3.42529 0.21199C3.32555 0.246478 3.23386 0.299853 3.15551 0.369024C3.07716 0.438194 3.01373 0.521783 2.96888 0.614946C2.92403 0.708109 2.89867 0.808993 2.89425 0.911751C2.88983 1.01451 2.90645 1.1171 2.94314 1.21357C2.97983 1.31004 3.03587 1.39848 3.108 1.47376L4.073 2.5055H2.1C1.67565 2.5055 1.26869 2.66926 0.968629 2.96077C0.668571 3.25228 0.5 3.64765 0.5 4.0599V14.9407C0.5 15.353 0.668571 15.7484 0.968629 16.0399C1.26869 16.3314 1.67565 16.4952 2.1 16.4952H17.164L19.108 18.5722C19.1783 18.6492 19.2635 18.7118 19.3589 18.7565C19.4542 18.8012 19.5578 18.827 19.6635 18.8325C19.7692 18.8381 19.875 18.8231 19.9747 18.7887C20.0744 18.7542 20.1661 18.7008 20.2445 18.6316C20.3228 18.5625 20.3863 18.4789 20.4311 18.3857C20.476 18.2925 20.5013 18.1917 20.5058 18.0889C20.5102 17.9861 20.4936 17.8836 20.4569 17.7871C20.4202 17.6906 20.3641 17.6022 20.292 17.5269L4.292 0.428422ZM2.1 14.9407V4.0599H5.528L15.71 14.9407H2.1Z" fill="white"/>
</svg>
