<svg width="18" height="22" viewBox="0 0 18 22" fill="none" xmlns="http://www.w3.org/2000/svg">
<path d="M17.0532 18.7455L2.05324 2.24554C1.98737 2.1713 1.90743 2.11086 1.81804 2.06774C1.72864 2.02462 1.63158 1.99968 1.53248 1.99434C1.43337 1.98901 1.3342 2.0034 1.24069 2.03668C1.14719 2.06996 1.06123 2.12147 0.987776 2.18822C0.914327 2.25497 0.854857 2.33563 0.812813 2.42554C0.770768 2.51544 0.746984 2.61279 0.742841 2.71195C0.738698 2.81111 0.754278 2.91011 0.788677 3.00321C0.823076 3.0963 0.875611 3.18165 0.943236 3.25429L4.49824 7.1646V10.9999C4.49834 11.8076 4.71581 12.6003 5.12782 13.2949C5.53983 13.9896 6.1312 14.5606 6.83988 14.9479C7.54857 15.3353 8.34844 15.5248 9.1556 15.4966C9.96275 15.4683 10.7474 15.2234 11.4273 14.7874L12.4473 15.9124C11.5483 16.544 10.4931 16.9166 9.39688 16.9896C8.30063 17.0626 7.20538 16.8332 6.23057 16.3264C5.25576 15.8196 4.43882 15.0548 3.86883 14.1156C3.29885 13.1763 2.9977 12.0986 2.99824 10.9999C2.99824 10.801 2.91922 10.6102 2.77857 10.4696C2.63791 10.3289 2.44715 10.2499 2.24824 10.2499C2.04932 10.2499 1.85856 10.3289 1.71791 10.4696C1.57725 10.6102 1.49824 10.801 1.49824 10.9999C1.50052 12.8585 2.19191 14.6503 3.43871 16.0287C4.68551 17.4071 6.39915 18.2743 8.24824 18.4624V20.7499C8.24824 20.9488 8.32725 21.1396 8.46791 21.2802C8.60856 21.4209 8.79932 21.4999 8.99824 21.4999C9.19715 21.4999 9.38791 21.4209 9.52857 21.2802C9.66922 21.1396 9.74824 20.9488 9.74824 20.7499V18.4615C11.0934 18.3277 12.377 17.8316 13.4626 17.0262L15.9432 19.7543C16.0091 19.8285 16.089 19.889 16.1784 19.9321C16.2678 19.9752 16.3649 20.0002 16.464 20.0055C16.5631 20.0108 16.6623 19.9964 16.7558 19.9631C16.8493 19.9299 16.9352 19.8784 17.0087 19.8116C17.0821 19.7449 17.1416 19.6642 17.1837 19.5743C17.2257 19.4844 17.2495 19.387 17.2536 19.2879C17.2578 19.1887 17.2422 19.0897 17.2078 18.9966C17.1734 18.9035 17.1209 18.8182 17.0532 18.7455ZM8.99824 13.9999C8.20259 13.9999 7.43952 13.6838 6.87691 13.1212C6.31431 12.5586 5.99824 11.7956 5.99824 10.9999V8.8146L10.397 13.654C9.96576 13.8812 9.48567 13.9999 8.99824 13.9999ZM5.16949 2.63554C5.68399 1.80242 6.45619 1.15984 7.36894 0.805314C8.28169 0.450784 9.28518 0.403647 10.2271 0.671053C11.1691 0.93846 11.9981 1.50582 12.5885 2.28704C13.1788 3.06827 13.4982 4.02073 13.4982 4.99992V10.6652C13.4982 10.8641 13.4192 11.0549 13.2786 11.1956C13.1379 11.3362 12.9471 11.4152 12.7482 11.4152C12.5493 11.4152 12.3586 11.3362 12.2179 11.1956C12.0773 11.0549 11.9982 10.8641 11.9982 10.6652V4.99992C11.9986 4.34677 11.7858 3.71136 11.3921 3.19017C10.9985 2.66898 10.4455 2.2905 9.81719 2.1122C9.18885 1.93391 8.5195 1.96554 7.91078 2.20229C7.30205 2.43905 6.78723 2.86799 6.44449 3.42398C6.39455 3.51142 6.32751 3.58791 6.24738 3.64888C6.16724 3.70986 6.07565 3.75407 5.97806 3.77889C5.88047 3.80371 5.77889 3.80862 5.67936 3.79333C5.57983 3.77805 5.4844 3.74287 5.39876 3.68991C5.31311 3.63695 5.23901 3.56729 5.18087 3.48508C5.12273 3.40286 5.08174 3.30978 5.06034 3.21139C5.03895 3.11299 5.03758 3.01129 5.05633 2.91236C5.07509 2.81343 5.11357 2.71928 5.16949 2.63554ZM14.5895 13.1815C14.8608 12.4862 14.9995 11.7463 14.9982 10.9999C14.9982 10.801 15.0773 10.6102 15.2179 10.4696C15.3586 10.3289 15.5493 10.2499 15.7482 10.2499C15.9471 10.2499 16.1379 10.3289 16.2786 10.4696C16.4192 10.6102 16.4982 10.801 16.4982 10.9999C16.4996 11.933 16.3259 12.858 15.9864 13.7271C15.952 13.8209 15.8993 13.9068 15.8314 13.9799C15.7634 14.0531 15.6815 14.1119 15.5905 14.1529C15.4994 14.194 15.4011 14.2165 15.3013 14.219C15.2015 14.2216 15.1022 14.2042 15.0092 14.1679C14.9162 14.1315 14.8314 14.077 14.7597 14.0075C14.6881 13.9379 14.631 13.8548 14.592 13.7629C14.5529 13.671 14.5325 13.5723 14.5321 13.4724C14.5317 13.3726 14.5512 13.2737 14.5895 13.1815Z" fill="white"/>
</svg>
