<svg width="27" height="16" viewBox="0 0 27 16" fill="none" xmlns="http://www.w3.org/2000/svg">
<path fill-rule="evenodd" clip-rule="evenodd" d="M24.2385 4.45979L21.9024 5.82305V10.1769L24.2385 11.5402V4.45979ZM24.7798 1.99531C24.9086 1.91515 25.0564 1.87276 25.2071 1.87276C25.3579 1.87276 25.5057 1.91515 25.6345 1.99531C25.7655 2.0701 25.8743 2.17968 25.9495 2.31251C26.0247 2.44533 26.0635 2.59648 26.0618 2.75V13.25C26.0635 13.4035 26.0247 13.5547 25.9495 13.6875C25.8743 13.8203 25.7655 13.9299 25.6345 14.0047C25.5049 14.0826 25.3575 14.1241 25.2071 14.125C25.0571 14.1226 24.91 14.0812 24.7798 14.0047L20.5064 11.5109C20.3754 11.4335 20.2667 11.3218 20.1917 11.1873C20.1166 11.0527 20.0777 10.9002 20.0791 10.7453V5.25468C20.0777 5.09976 20.1166 4.94725 20.1917 4.81273C20.2667 4.67821 20.3754 4.56652 20.5064 4.48906L24.7798 1.99531ZM18.9879 3.36313C18.69 1.45668 17.0762 0 15.1301 0H4.3856C2.22778 0 0.478516 1.79086 0.478516 4V12C0.478516 14.2091 2.22778 16 4.3856 16H15.1301C17.0762 16 18.69 14.5433 18.9879 12.6369C19.0203 12.4295 19.0372 12.2167 19.0372 12V4C19.0372 3.78325 19.0203 3.57053 18.9879 3.36313ZM15.1301 1.86667H4.3856C3.23477 1.86667 2.30182 2.82179 2.30182 4V12C2.30182 13.1782 3.23476 14.1333 4.3856 14.1333H15.1301C16.2809 14.1333 17.2139 13.1782 17.2139 12V4C17.2139 2.82179 16.2809 1.86667 15.1301 1.86667Z" fill="#D4D4D8"/>
</svg>
